<svg width="140" height="140" viewBox="0 0 140 140" fill="none" xmlns="http://www.w3.org/2000/svg">
<g filter="url(#filter0_i_408_513)">
<path d="M70 0C108.66 0 140 31.3401 140 70C140 83.3926 136.237 95.9058 129.714 106.543L137.348 134.062L110.479 127.114C99.0504 135.228 85.0828 140 70 140C31.3401 140 0 108.66 0 70C0 31.3401 31.3401 0 70 0Z" fill="#144A90"/>
</g>
<path d="M81.12 103.91L77.25 99.9999C77.157 99.9062 77.0464 99.8318 76.9246 99.781C76.8027 99.7302 76.672 99.7041 76.54 99.7041C76.408 99.7041 76.2773 99.7302 76.1554 99.781C76.0336 99.8318 75.923 99.9062 75.83 99.9999C75.6437 100.187 75.5392 100.441 75.5392 100.705C75.5392 100.969 75.6437 101.223 75.83 101.41L79.39 105H59C58.7348 105 58.4804 105.105 58.2929 105.293C58.1054 105.48 58 105.735 58 106V106C58 106.265 58.1054 106.519 58.2929 106.707C58.4804 106.895 58.7348 107 59 107H79.45L75.83 110.61C75.7363 110.703 75.6619 110.813 75.6111 110.935C75.5603 111.057 75.5342 111.188 75.5342 111.32C75.5342 111.452 75.5603 111.583 75.6111 111.704C75.6619 111.826 75.7363 111.937 75.83 112.03C75.923 112.124 76.0336 112.198 76.1554 112.249C76.2773 112.3 76.408 112.326 76.54 112.326C76.672 112.326 76.8027 112.3 76.9246 112.249C77.0464 112.198 77.157 112.124 77.25 112.03L81.12 108.15C81.6818 107.587 81.9974 106.825 81.9974 106.03C81.9974 105.235 81.6818 104.472 81.12 103.91Z" fill="white"/>
<path d="M59.5703 47.4141H59.7578L64.1875 34.0312H67.5391L61.5391 51H57.7891L51.8125 34.0312H55.1641L59.5703 47.4141ZM69.5547 34.0312H75.9297C77.2031 34.0312 78.2852 34.2578 79.1758 34.7109C80.0742 35.1562 80.7539 35.7852 81.2148 36.5977C81.6758 37.4102 81.9062 38.3594 81.9062 39.4453C81.9062 40.6016 81.6445 41.5938 81.1211 42.4219C80.6055 43.25 79.8477 43.8672 78.8477 44.2734L82.5156 51H79.1172L75.7891 44.7891H72.6016V51H69.5547V34.0312ZM75.4609 42.2344C77.6797 42.2344 78.7891 41.3047 78.7891 39.4453C78.7891 38.5234 78.5156 37.8164 77.9688 37.3242C77.4219 36.832 76.5859 36.5859 75.4609 36.5859H72.6016V42.2344H75.4609ZM23.5703 65.9844C23.5625 67.25 23.7617 68.4922 24.168 69.7109C24.582 70.9219 25.1797 72.0078 25.9609 72.9688C26.7422 73.9297 27.6641 74.6641 28.7266 75.1719L27.1328 77.2578C26.0078 76.6875 25.0312 75.875 24.2031 74.8203C23.3828 73.7656 22.7422 72.5469 22.2812 71.1641C21.8047 72.6406 21.1328 73.9453 20.2656 75.0781C19.4062 76.2031 18.3828 77.0625 17.1953 77.6562L15.6016 75.5703C16.7031 75.0469 17.6562 74.2852 18.4609 73.2852C19.2734 72.2773 19.8906 71.1406 20.3125 69.875C20.7422 68.6016 20.9609 67.3047 20.9688 65.9844V62.6094H23.5703V65.9844ZM32.5938 69.1953H35.8516V71.4219H32.5938V82.0859H29.9922V60.8984H32.5938V69.1953ZM54.3672 82.1094H51.7422V60.8984H54.3672V82.1094ZM42.9531 62.4453C44.0156 62.4453 44.9609 62.7539 45.7891 63.3711C46.625 63.9805 47.2812 64.8516 47.7578 65.9844C48.2344 67.1094 48.4766 68.4219 48.4844 69.9219C48.4766 71.4297 48.2344 72.75 47.7578 73.8828C47.2891 75.0156 46.6367 75.8906 45.8008 76.5078C44.9648 77.1172 44.0156 77.4219 42.9531 77.4219C41.8828 77.4219 40.9297 77.1172 40.0938 76.5078C39.2578 75.8906 38.6016 75.0156 38.125 73.8828C37.6562 72.75 37.4219 71.4297 37.4219 69.9219C37.4219 68.4219 37.6562 67.1094 38.125 65.9844C38.6016 64.8516 39.2578 63.9805 40.0938 63.3711C40.9297 62.7539 41.8828 62.4453 42.9531 62.4453ZM42.9531 64.7891C42.3516 64.7891 41.8203 64.9922 41.3594 65.3984C40.9062 65.8047 40.5547 66.3945 40.3047 67.168C40.0547 67.9414 39.9297 68.8594 39.9297 69.9219C39.9297 70.9922 40.0547 71.9141 40.3047 72.6875C40.5547 73.4609 40.9062 74.0547 41.3594 74.4688C41.8203 74.875 42.3516 75.0781 42.9531 75.0781C43.5469 75.0781 44.0703 74.875 44.5234 74.4688C44.9766 74.0547 45.3281 73.4609 45.5781 72.6875C45.8281 71.9141 45.9531 70.9922 45.9531 69.9219C45.9531 68.8594 45.8281 67.9453 45.5781 67.1797C45.3281 66.4062 44.9766 65.8164 44.5234 65.4102C44.0703 64.9961 43.5469 64.7891 42.9531 64.7891ZM75.25 82.1094H72.6719V70.625H68.3594V76.9766H58.2812V62.5391H60.9062V67.8125H65.8047V62.5391H68.3594V68.4922H72.6719V60.8984H75.25V82.1094ZM65.8047 74.8906V69.8516H60.9062V74.8906H65.8047ZM103.258 75.6641H94.8438V82.0859H92.2656V75.6641H83.8984V73.5312H103.258V75.6641ZM101.172 71.7734H86.3828V61.8125H100.938V63.875H88.9609V65.75H100.469V67.7656H88.9609V69.7109H101.172V71.7734ZM110.453 62.4453C111.406 62.4453 112.266 62.6992 113.031 63.207C113.797 63.7148 114.422 64.4414 114.906 65.3867C115.391 66.3242 115.691 67.4297 115.809 68.7031H119.852V60.8984H122.43V82.1094H119.852V70.8125H115.844C115.75 72.1562 115.465 73.3281 114.988 74.3281C114.512 75.3203 113.883 76.0859 113.102 76.625C112.32 77.1562 111.438 77.4219 110.453 77.4219C109.391 77.4219 108.449 77.1172 107.629 76.5078C106.809 75.8984 106.168 75.0273 105.707 73.8945C105.246 72.7617 105.016 71.4375 105.016 69.9219C105.016 68.4219 105.246 67.1094 105.707 65.9844C106.168 64.8516 106.809 63.9805 107.629 63.3711C108.457 62.7539 109.398 62.4453 110.453 62.4453ZM110.453 64.7891C109.867 64.7891 109.352 64.9961 108.906 65.4102C108.461 65.8164 108.117 66.4062 107.875 67.1797C107.633 67.9453 107.516 68.8594 107.523 69.9219C107.516 70.9922 107.633 71.9141 107.875 72.6875C108.117 73.4609 108.461 74.0547 108.906 74.4688C109.352 74.875 109.867 75.0781 110.453 75.0781C111.039 75.0781 111.551 74.875 111.988 74.4688C112.434 74.0547 112.777 73.4609 113.02 72.6875C113.27 71.9141 113.398 70.9922 113.406 69.9219C113.398 68.8594 113.27 67.9414 113.02 67.168C112.777 66.3945 112.434 65.8047 111.988 65.3984C111.551 64.9922 111.039 64.7891 110.453 64.7891Z" fill="white"/>
<defs>
<filter id="filter0_i_408_513" x="0" y="0" width="143" height="144" filterUnits="userSpaceOnUse" color-interpolation-filters="sRGB">
<feFlood flood-opacity="0" result="BackgroundImageFix"/>
<feBlend mode="normal" in="SourceGraphic" in2="BackgroundImageFix" result="shape"/>
<feColorMatrix in="SourceAlpha" type="matrix" values="0 0 0 0 0 0 0 0 0 0 0 0 0 0 0 0 0 0 127 0" result="hardAlpha"/>
<feOffset dx="3" dy="4"/>
<feGaussianBlur stdDeviation="2"/>
<feComposite in2="hardAlpha" operator="arithmetic" k2="-1" k3="1"/>
<feColorMatrix type="matrix" values="0 0 0 0 0 0 0 0 0 0 0 0 0 0 0 0 0 0 0.25 0"/>
<feBlend mode="normal" in2="shape" result="effect1_innerShadow_408_513"/>
</filter>
</defs>
</svg>
