<svg width="23" height="23" viewBox="0 0 23 23" fill="none" xmlns="http://www.w3.org/2000/svg">
<g clip-path="url(#clip0_356_657)">
<path d="M11.5003 5.75C10.7422 5.75 10.001 5.97482 9.37064 6.39603C8.74025 6.81725 8.24892 7.41593 7.95879 8.11638C7.66865 8.81683 7.59274 9.58759 7.74065 10.3312C7.88856 11.0748 8.25365 11.7578 8.78975 12.2939C9.32585 12.83 10.0089 13.1951 10.7525 13.343C11.4961 13.4909 12.2668 13.415 12.9673 13.1249C13.6677 12.8347 14.2664 12.3434 14.6876 11.713C15.1088 11.0826 15.3337 10.3415 15.3337 9.58333C15.3337 8.56667 14.9298 7.59165 14.2109 6.87276C13.492 6.15387 12.517 5.75 11.5003 5.75ZM11.5003 11.5C11.1212 11.5 10.7507 11.3876 10.4355 11.177C10.1203 10.9664 9.87463 10.667 9.72956 10.3168C9.58449 9.96658 9.54653 9.58121 9.62049 9.20941C9.69444 8.83761 9.87699 8.4961 10.145 8.22805C10.4131 7.96 10.7546 7.77745 11.1264 7.70349C11.4982 7.62954 11.8836 7.6675 12.2338 7.81256C12.584 7.95763 12.8834 8.2033 13.094 8.51849C13.3046 8.83368 13.417 9.20425 13.417 9.58333C13.417 10.0917 13.2151 10.5792 12.8556 10.9386C12.4962 11.2981 12.0087 11.5 11.5003 11.5Z" fill="black"/>
<path d="M11.4998 23.0002C10.6928 23.0043 9.89663 22.8151 9.17783 22.4483C8.45904 22.0814 7.83859 21.5478 7.36844 20.8919C3.71623 15.8539 1.86377 12.0666 1.86377 9.63433C1.86377 7.0787 2.87899 4.62773 4.6861 2.82062C6.49321 1.01351 8.94417 -0.00170898 11.4998 -0.00170898C14.0554 -0.00170898 16.5064 1.01351 18.3135 2.82062C20.1206 4.62773 21.1359 7.0787 21.1359 9.63433C21.1359 12.0666 19.2834 15.8539 15.6312 20.8919C15.161 21.5478 14.5406 22.0814 13.8218 22.4483C13.103 22.8151 12.3068 23.0043 11.4998 23.0002ZM11.4998 2.09033C9.49921 2.09262 7.5812 2.88836 6.16656 4.303C4.75192 5.71764 3.95618 7.63565 3.95389 9.63625C3.95389 11.5625 5.76802 15.1246 9.06085 19.6662C9.34039 20.0512 9.70712 20.3646 10.131 20.5807C10.5549 20.7968 11.024 20.9094 11.4998 20.9094C11.9756 20.9094 12.4447 20.7968 12.8686 20.5807C13.2925 20.3646 13.6592 20.0512 13.9388 19.6662C17.2316 15.1246 19.0457 11.5625 19.0457 9.63625C19.0434 7.63565 18.2477 5.71764 16.8331 4.303C15.4184 2.88836 13.5004 2.09262 11.4998 2.09033Z" fill="black"/>
</g>
<defs>
<clipPath id="clip0_356_657">
<rect width="23" height="23" fill="white"/>
</clipPath>
</defs>
</svg>
