<svg width="28" height="28" viewBox="0 0 28 28" fill="none" xmlns="http://www.w3.org/2000/svg">
<path d="M21.0003 14C20.9946 13.3862 20.7473 12.7994 20.312 12.3667L15.307 7.35C15.0884 7.13271 14.7927 7.01074 14.4845 7.01074C14.1763 7.01074 13.8806 7.13271 13.662 7.35C13.5526 7.45846 13.4658 7.58749 13.4066 7.72966C13.3474 7.87183 13.3169 8.02432 13.3169 8.17833C13.3169 8.33235 13.3474 8.48484 13.4066 8.627C13.4658 8.76917 13.5526 8.89821 13.662 9.00666L17.5003 12.8333H5.83366C5.52424 12.8333 5.22749 12.9562 5.0087 13.175C4.78991 13.3938 4.66699 13.6906 4.66699 14C4.66699 14.3094 4.78991 14.6062 5.0087 14.8249C5.22749 15.0437 5.52424 15.1667 5.83366 15.1667H17.5003L13.662 19.005C13.4423 19.2231 13.3183 19.5196 13.3172 19.8292C13.3161 20.1388 13.438 20.4361 13.6562 20.6558C13.8743 20.8755 14.1708 20.9995 14.4804 21.0006C14.79 21.0017 15.0873 20.8798 15.307 20.6617L20.312 15.645C20.7502 15.2094 20.9977 14.6178 21.0003 14Z" fill="white"/>
</svg>
