<svg width="34" height="34" viewBox="0 0 34 34" fill="none" xmlns="http://www.w3.org/2000/svg">
<g clip-path="url(#clip0_356_987)">
<path d="M33.5844 31.5828L25.1283 23.1267C27.4327 20.3084 28.5657 16.7122 28.2929 13.0819C28.0201 9.45166 26.3625 6.06512 23.6629 3.62277C20.9632 1.18042 17.4281 -0.130869 13.7888 -0.0398737C10.1494 0.0511214 6.68428 1.53744 4.11007 4.11165C1.53586 6.68586 0.0495345 10.151 -0.0414606 13.7904C-0.132456 17.4297 1.17884 20.9648 3.62119 23.6644C6.06353 26.3641 9.45008 28.0217 13.0803 28.2945C16.7106 28.5672 20.3068 27.4343 23.1251 25.1299L31.5812 33.586C31.8484 33.844 32.2062 33.9868 32.5777 33.9836C32.9491 33.9803 33.3045 33.8314 33.5671 33.5687C33.8298 33.306 33.9788 32.9507 33.982 32.5793C33.9852 32.2078 33.8424 31.85 33.5844 31.5828ZM14.1661 25.501C11.9246 25.501 9.73341 24.8363 7.86965 23.591C6.00589 22.3457 4.55327 20.5757 3.69548 18.5048C2.83769 16.4339 2.61325 14.1551 3.05055 11.9567C3.48785 9.75823 4.56724 7.73882 6.15224 6.15382C7.73723 4.56883 9.75664 3.48943 11.9551 3.05213C14.1535 2.61483 16.4323 2.83927 18.5032 3.69707C20.5741 4.55486 22.3441 6.00748 23.5894 7.87124C24.8348 9.73499 25.4995 11.9262 25.4995 14.1677C25.4961 17.1725 24.3009 20.0532 22.1763 22.1779C20.0516 24.3025 17.1709 25.4977 14.1661 25.501Z" fill="white"/>
</g>
<defs>
<clipPath id="clip0_356_987">
<rect width="34" height="34" fill="white"/>
</clipPath>
</defs>
</svg>
