<svg width="30" height="30" viewBox="0 0 30 30" fill="none" xmlns="http://www.w3.org/2000/svg">
<path d="M26 13.9997H4C3.44772 13.9997 3 14.4474 3 14.9997C3 15.552 3.44772 15.9997 4 15.9997H26C26.5523 15.9997 27 15.552 27 14.9997C27 14.4474 26.5523 13.9997 26 13.9997Z" fill="#374957"/>
<path d="M26 7.00031H4C3.44772 7.00031 3 7.44802 3 8.0003C3 8.55259 3.44772 9.0003 4 9.0003H26C26.5523 9.0003 27 8.55259 27 8.0003C27 7.44802 26.5523 7.00031 26 7.00031Z" fill="#374957"/>
<path d="M26 21H4C3.44772 21 3 21.4477 3 22C3 22.5523 3.44772 23 4 23H26C26.5523 23 27 22.5523 27 22C27 21.4477 26.5523 21 26 21Z" fill="#374957"/>
</svg>
