<svg width="23" height="23" viewBox="0 0 23 23" fill="none" xmlns="http://www.w3.org/2000/svg">
<g clip-path="url(#clip0_356_660)">
<path d="M18.2083 1.91667H17.25V0.958333C17.25 0.704167 17.149 0.460412 16.9693 0.280689C16.7896 0.100967 16.5458 0 16.2917 0C16.0375 0 15.7937 0.100967 15.614 0.280689C15.4343 0.460412 15.3333 0.704167 15.3333 0.958333V1.91667H7.66667V0.958333C7.66667 0.704167 7.5657 0.460412 7.38598 0.280689C7.20625 0.100967 6.9625 0 6.70833 0C6.45417 0 6.21041 0.100967 6.03069 0.280689C5.85097 0.460412 5.75 0.704167 5.75 0.958333V1.91667H4.79167C3.5213 1.91819 2.30341 2.42351 1.40513 3.32179C0.506845 4.22008 0.0015217 5.43797 0 6.70833L0 18.2083C0.0015217 19.4787 0.506845 20.6966 1.40513 21.5949C2.30341 22.4932 3.5213 22.9985 4.79167 23H18.2083C19.4787 22.9985 20.6966 22.4932 21.5949 21.5949C22.4932 20.6966 22.9985 19.4787 23 18.2083V6.70833C22.9985 5.43797 22.4932 4.22008 21.5949 3.32179C20.6966 2.42351 19.4787 1.91819 18.2083 1.91667ZM1.91667 6.70833C1.91667 5.94584 2.21957 5.21457 2.75873 4.6754C3.2979 4.13623 4.02917 3.83333 4.79167 3.83333H18.2083C18.9708 3.83333 19.7021 4.13623 20.2413 4.6754C20.7804 5.21457 21.0833 5.94584 21.0833 6.70833V7.66667H1.91667V6.70833ZM18.2083 21.0833H4.79167C4.02917 21.0833 3.2979 20.7804 2.75873 20.2413C2.21957 19.7021 1.91667 18.9708 1.91667 18.2083V9.58333H21.0833V18.2083C21.0833 18.9708 20.7804 19.7021 20.2413 20.2413C19.7021 20.7804 18.9708 21.0833 18.2083 21.0833Z" fill="black"/>
<path d="M11.5 15.8125C12.2939 15.8125 12.9375 15.1689 12.9375 14.375C12.9375 13.5811 12.2939 12.9375 11.5 12.9375C10.7061 12.9375 10.0625 13.5811 10.0625 14.375C10.0625 15.1689 10.7061 15.8125 11.5 15.8125Z" fill="black"/>
<path d="M6.70801 15.8125C7.50192 15.8125 8.14551 15.1689 8.14551 14.375C8.14551 13.5811 7.50192 12.9375 6.70801 12.9375C5.9141 12.9375 5.27051 13.5811 5.27051 14.375C5.27051 15.1689 5.9141 15.8125 6.70801 15.8125Z" fill="black"/>
<path d="M16.292 15.8125C17.0859 15.8125 17.7295 15.1689 17.7295 14.375C17.7295 13.5811 17.0859 12.9375 16.292 12.9375C15.4981 12.9375 14.8545 13.5811 14.8545 14.375C14.8545 15.1689 15.4981 15.8125 16.292 15.8125Z" fill="black"/>
</g>
<defs>
<clipPath id="clip0_356_660">
<rect width="23" height="23" fill="white"/>
</clipPath>
</defs>
</svg>
