<svg width="23" height="23" viewBox="0 0 23 23" fill="none" xmlns="http://www.w3.org/2000/svg">
<g clip-path="url(#clip0_356_663)">
<path d="M12.458 0.958399C12.458 0.704233 12.5589 0.460477 12.7387 0.280755C12.9184 0.101033 13.1621 6.55837e-05 13.4163 6.55837e-05C15.9571 0.00285586 18.393 1.01342 20.1897 2.81004C21.9863 4.60666 22.9968 7.0426 22.9996 9.5834C22.9996 9.83757 22.8987 10.0813 22.7189 10.261C22.5392 10.4408 22.2955 10.5417 22.0413 10.5417C21.7871 10.5417 21.5434 10.4408 21.3637 10.261C21.1839 10.0813 21.083 9.83757 21.083 9.5834C21.0807 7.55077 20.2722 5.60205 18.8349 4.16477C17.3977 2.72748 15.4489 1.91902 13.4163 1.91673C13.1621 1.91673 12.9184 1.81577 12.7387 1.63604C12.5589 1.45632 12.458 1.21256 12.458 0.958399ZM13.4163 5.75007C14.433 5.75007 15.408 6.15393 16.1269 6.87282C16.8458 7.59171 17.2496 8.56674 17.2496 9.5834C17.2496 9.83757 17.3506 10.0813 17.5303 10.261C17.71 10.4408 17.9538 10.5417 18.208 10.5417C18.4621 10.5417 18.7059 10.4408 18.8856 10.261C19.0653 10.0813 19.1663 9.83757 19.1663 9.5834C19.1648 8.05887 18.5585 6.59722 17.4805 5.51922C16.4025 4.44121 14.9408 3.83492 13.4163 3.8334C13.1621 3.8334 12.9184 3.93437 12.7387 4.11409C12.5589 4.29381 12.458 4.53757 12.458 4.79173C12.458 5.0459 12.5589 5.28965 12.7387 5.46938C12.9184 5.6491 13.1621 5.75007 13.4163 5.75007ZM22.1304 16.0416C22.6858 16.5985 22.9977 17.3529 22.9977 18.1394C22.9977 18.9259 22.6858 19.6803 22.1304 20.2372L21.2583 21.2425C13.4096 28.7568 -5.68996 9.66198 1.70837 1.78832L2.81045 0.829982C3.36798 0.290131 4.11563 -0.00851238 4.89166 -0.00133853C5.66769 0.00583533 6.4097 0.31825 6.95715 0.868316C6.98686 0.898024 8.76265 3.20473 8.76265 3.20473C9.28957 3.75829 9.58289 4.49362 9.58164 5.25787C9.58039 6.02211 9.28467 6.75648 8.75594 7.30832L7.64619 8.70365C8.26034 10.1959 9.16329 11.5521 10.3032 12.6942C11.4431 13.8364 12.7974 14.7421 14.2884 15.3593L15.6923 14.2428C16.2443 13.7145 16.9785 13.4191 17.7425 13.4181C18.5065 13.417 19.2416 13.7103 19.795 14.2371C19.795 14.2371 22.1007 16.0119 22.1304 16.0416ZM20.8118 17.435C20.8118 17.435 18.5185 15.6707 18.4888 15.641C18.2913 15.4453 18.0246 15.3354 17.7465 15.3354C17.4685 15.3354 17.2017 15.4453 17.0043 15.641C16.9784 15.6679 15.0455 17.2079 15.0455 17.2079C14.9152 17.3116 14.7602 17.3795 14.5957 17.4051C14.4312 17.4306 14.2628 17.4129 14.1073 17.3536C12.1757 16.6344 10.4213 15.5085 8.96278 14.0522C7.5043 12.5958 6.37583 10.8431 5.65382 8.91257C5.5898 8.75488 5.56893 8.58298 5.59335 8.41456C5.61778 8.24613 5.68661 8.08724 5.79278 7.95423C5.79278 7.95423 7.33282 6.02032 7.35869 5.9954C7.55445 5.79797 7.66429 5.5312 7.66429 5.25317C7.66429 4.97514 7.55445 4.70837 7.35869 4.51094C7.32899 4.48219 5.5647 2.18698 5.5647 2.18698C5.36431 2.0073 5.10278 1.91107 4.83373 1.91802C4.56467 1.92497 4.30846 2.03457 4.11761 2.22436L3.01553 3.18269C-2.39138 9.68402 14.16 25.3173 19.8573 19.9334L20.7303 18.9271C20.9349 18.7376 21.0578 18.476 21.073 18.1976C21.0882 17.9191 20.9945 17.6457 20.8118 17.435Z" fill="black"/>
</g>
<defs>
<clipPath id="clip0_356_663">
<rect width="23" height="23" fill="white"/>
</clipPath>
</defs>
</svg>
