<svg width="31" height="31" viewBox="0 0 31 31" fill="none" xmlns="http://www.w3.org/2000/svg">
<g clip-path="url(#clip0_356_632)">
<path d="M29.862 1.13946C29.3989 0.670746 28.8228 0.329394 28.1892 0.148382C27.5557 -0.0326311 26.8861 -0.0471861 26.2453 0.106123L5.57867 4.45904C4.3885 4.62226 3.26753 5.11453 2.34202 5.88041C1.4165 6.64628 0.723183 7.65534 0.340155 8.79396C-0.0428734 9.93257 -0.100404 11.1555 0.174043 12.3251C0.44849 13.4946 1.04401 14.5643 1.89355 15.4137L4.11263 17.6315C4.23273 17.7515 4.32798 17.8941 4.39292 18.051C4.45786 18.2079 4.49122 18.3761 4.49109 18.546V22.638C4.49394 23.2133 4.62638 23.7806 4.87859 24.2977L4.86825 24.3068L4.90184 24.3404C5.28031 25.1013 5.89846 25.7168 6.66109 26.0919L6.69467 26.1255L6.70371 26.1151C7.22085 26.3673 7.78816 26.4998 8.3635 26.5026H12.4555C12.7979 26.5024 13.1263 26.638 13.3687 26.8798L15.5865 29.0976C16.1813 29.699 16.8893 30.1768 17.6697 30.5033C18.45 30.8299 19.2873 30.9987 20.1332 31.0002C20.8381 30.9993 21.5382 30.8842 22.2063 30.6592C23.3345 30.2887 24.3367 29.6104 25.0999 28.7007C25.8631 27.7909 26.3569 26.686 26.5256 25.5106L30.885 4.79875C31.0463 4.15245 31.0368 3.47533 30.8574 2.83382C30.6781 2.1923 30.3351 1.60842 29.862 1.13946V1.13946ZM5.94163 15.8076L3.72125 13.5898C3.20422 13.0853 2.84185 12.4437 2.67667 11.7404C2.51148 11.0371 2.55033 10.3012 2.78867 9.61925C3.01974 8.91958 3.44691 8.30101 4.01937 7.83709C4.59182 7.37317 5.28548 7.08343 6.01784 7.00233L26.4791 2.69462L7.07184 22.1045V18.546C7.07379 18.0375 6.97491 17.5337 6.78092 17.0636C6.58692 16.5936 6.30166 16.1667 5.94163 15.8076V15.8076ZM23.9875 25.0689C23.8883 25.7823 23.5923 26.454 23.1326 27.0085C22.6728 27.563 22.0677 27.9784 21.385 28.2081C20.7023 28.4377 19.9691 28.4726 19.2677 28.3087C18.5663 28.1448 17.9244 27.7886 17.4142 27.2802L15.1925 25.0585C14.8339 24.698 14.4074 24.4121 13.9376 24.2174C13.4678 24.0228 12.964 23.9232 12.4555 23.9245H8.89696L28.3068 4.52104L23.9875 25.0689Z" fill="white"/>
</g>
<defs>
<clipPath id="clip0_356_632">
<rect width="31" height="31" fill="white"/>
</clipPath>
</defs>
</svg>
